<svg xmlns="http://www.w3.org/2000/svg" viewBox="0 0 778.216 777.648"><style>path{fill:#0b0b0d}@media(prefers-color-scheme:dark){path{fill:#fff}}</style><path d="M357.617.63c-4.9.5-11.5 1.1-14.5 1.4-8.9.9-33.5 5.4-47 8.7-33.9 8.3-73.6 24.3-102.3 41.3-4.2 2.4-7.8 4.1-8.1 3.8-.4-.3-2.1.8-3.9 2.5-1.7 1.6-8.1 6.3-14 10.3-38.2 26-74 62.1-100.6 101.5-55.9 82.8-77.7 180.1-62.5 279.2 12 78.6 48.9 152.4 104.9 210.1 55.1 56.9 124.4 95 201.5 110.7 40.9 8.4 92.6 9.9 133.5 3.9 157.9-22.9 285.6-139.4 322.9-294.4 17-70.5 13.6-146.5-9.5-215.3-47.6-141.5-174.4-244.6-322.4-262.2-16-1.9-63.9-2.8-78-1.5m-23.3 274.2c.9.7 12.3 18.6 25.4 39.8 13 21.2 24.6 39.3 25.8 40.2 4.6 3.8 9.4 1.4 17.3-8.8 1.3-1.8 3.7-3.7 5.2-4.4 6.1-2.5 5.9-2.7 43.8 64.6 19.5 34.6 36.4 63.9 37.5 65.1 3.2 3.5 8 3.1 12.2-1 1.9-1.7 21.3-22.3 43.2-45.7s40.8-43.1 42.1-43.8c1.2-.7 3.4-1 4.8-.6 1.7.4 14.5 15.4 43.2 50.7 22.5 27.6 41.6 51 42.6 51.9 1 1.1 3.2 1.8 5.6 1.8 4.6 0 7.5-2.9 9-8.9.5-2 2.5-10.4 4.5-18.6 2.9-12.4 4-15.4 6.1-17.3 3.1-2.6 6.2-2.8 9.4-.6 2.4 1.7 38.2 73.5 40.1 80.5.9 3.2.6 4.8-1.9 11.1-2.1 5.4-3.4 7.4-4.9 7.6-1.6.3-5.2-3.4-15.9-15.9-10.4-12.3-13.9-15.7-14.1-14.2-.2 1.1 1.9 8.1 4.6 15.4 2.7 7.4 6.6 20.4 8.7 29 4.2 16.9 4.1 18.3-.7 24.4-2.6 3.3-7.6 3.4-10.5.2-1.2-1.2-15.5-19.3-31.8-40.2-16.4-20.9-30.4-38.6-31.3-39.3-3-2.3-7.8-1.5-10.6 1.9-3.5 4.1-4.2 7.4-2.6 12.8.7 2.5 1.5 6.6 1.7 9.1.6 7.7-5.3 14.3-10.9 12.1-1.3-.5-7.7-7.7-14.3-16s-13.2-15.5-14.6-16.1c-5.5-2.3-11.9 3.6-11.9 11 0 1.9 3.8 15.6 8.5 30.4 9.8 31.2 10.2 34.1 5.1 39.2-1.9 1.9-4.3 3.4-5.4 3.4s-19-12.2-39.8-27.1c-20.9-15-38.7-27.4-39.6-27.7-5.8-1.5-10.8 4.1-10.8 12.1 0 4.2 4.2 13 40.1 85 22.1 44.1 39.7 79.7 39.2 79.2-.6-.6-39.8-67.8-87.3-149.5-47.4-81.7-87.4-150-88.7-151.8-2-2.6-3.1-3.2-6.3-3.2-3.1 0-4.3.6-6.2 3-6.7 8.8-8 10-10.9 10-1.8 0-3.9-.9-5.2-2.3-1.2-1.2-12.3-20.2-24.6-42.2s-23.3-41-24.4-42.3c-2.9-3.1-8.6-3-11.6.2-1.9 2-10 33-45.6 175.8-42.3 168.9-43.5 173.4-46.5 176.1-1.6 1.5-3.9 2.7-4.9 2.7-2.7 0-7.8-4.5-8.5-7.5-.4-1.4-1.3-21.1-2-43.9-1.2-33.8-1.7-42-3-44.5-1.9-3.5-4.4-5.1-8.1-5.1-2.9 0-5 1.9-14.3 12.8-4.3 5-5.9 6.2-8.3 6.2-3.8 0-7.4-3.5-8.8-8.4-1.1-4.1-.6-6 4.8-20.4 3.5-9.4 3.8-12 1.5-16.7-1.8-4-43.5-37.5-46.5-37.5-1.1 0-2.9.4-3.9 1-1 .5-15 14.8-31.1 31.7-16 17-31.2 32.8-33.7 35.3-4.4 4.4-4.5 4.4-2.4 1 32.2-55.2 61.7-104.9 62.9-106.3 1.6-1.7 5.7-2.2 8.6-1.1.9.3 6.4 6.4 12.3 13.5 5.9 7.2 11.6 13.5 12.5 14 3.1 1.6 7.4 1 9.6-1.4 1.1-1.2 36.4-53.1 78.3-115.2 41.9-62.2 77.1-114 78.3-115.3 2.3-2.5 7.3-3 9.9-1"/></svg>
